<?xml version="1.0" encoding="UTF-8" standalone="no"?>
<svg
   xmlns:dc="http://purl.org/dc/elements/1.1/"
   xmlns:cc="http://creativecommons.org/ns#"
   xmlns:rdf="http://www.w3.org/1999/02/22-rdf-syntax-ns#"
   xmlns:svg="http://www.w3.org/2000/svg"
   xmlns="http://www.w3.org/2000/svg"
   xmlns:xlink="http://www.w3.org/1999/xlink"
   version="1.1"
   id="svg2"
   viewBox="0 0 913.87237 919.92109">
  <defs
     id="defs4">
    <linearGradient
       id="linearGradient6036">
      <stop
         id="stop5959"
         offset="0"
         style="stop-color:#c80100;stop-opacity:1" />
      <stop
         style="stop-color:#d46800;stop-opacity:0.70196078;"
         offset="0.52907437"
         id="stop6038" />
      <stop
         id="stop5961"
         offset="1"
         style="stop-color:#ec7400;stop-opacity:0" />
    </linearGradient>
    <linearGradient
       gradientUnits="userSpaceOnUse"
       y2="471.34314"
       x2="652.59595"
       y1="611.3739"
       x1="348.44122"
       id="linearGradient5965"
       xlink:href="#linearGradient6036" />
  </defs>
  <metadata
     id="metadata7">
    <rdf:RDF>
      <cc:Work
         rdf:about="">
        <dc:format>image/svg+xml</dc:format>
        <dc:type
           rdf:resource="http://purl.org/dc/dcmitype/StillImage" />
        <dc:title></dc:title>
      </cc:Work>
    </rdf:RDF>
  </metadata>
  <g
     transform="translate(230.87548,221.23529)"
          style="display:none"
     id="layer1">
    <path
       transform="translate(-251.29425,-242.55335)"
       id="path3359"
       d="M 503.46094,364.36133 A 174.49736,174.49736 0 0 0 328.96289,538.85938 174.49736,174.49736 0 0 0 503.46094,713.35547 174.49736,174.49736 0 0 0 677.95703,538.85938 174.49736,174.49736 0 0 0 503.46094,364.36133 Z"
       style="fill:url(#linearGradient5965);fill-rule:evenodd;stroke:#ff640f;stroke-width:5.8557148px;stroke-linecap:butt;stroke-linejoin:miter;stroke-opacity:1;fill-opacity:1" />
    <path
       id="path3379"
       d=""
       style="fill:none;fill-rule:evenodd;stroke:#000000;stroke-width:1px;stroke-linecap:butt;stroke-linejoin:miter;stroke-opacity:1" />
    <path
       id="use3850"
       d="m 613.33057,587.93239 c 0,0 8.64956,-34.92093 -9.70288,-54.30209 -16.16522,-17.07136 -54.02128,24.8472 -72.49334,10.67489 -21.38467,-16.40695 19.0615,-61.00009 3.52217,-78.38043 -13.78369,-15.41665 -73.96908,27.95865 -87.88711,12.66289 -16.03088,-17.61787 26.54003,-59.28774 12.16091,-78.27787 -10.39245,-13.72504 -61.98474,-10.952 -61.98474,-10.952"
       style="fill:none;fill-rule:evenodd;stroke:#ff640f;stroke-width:2.82909465;stroke-linecap:butt;stroke-linejoin:miter;stroke-opacity:1;stroke-miterlimit:4;stroke-dasharray:none" />
    <path
       style="fill:none;fill-rule:evenodd;stroke:#ff640f;stroke-width:1.67342079;stroke-linecap:butt;stroke-linejoin:miter;stroke-opacity:1;stroke-miterlimit:4;stroke-dasharray:none"
       d="m 375.74783,624.5772 c 0,0 27.67197,-31.47658 24.00281,-46.83249 -3.23187,-13.52583 -38.90402,-11.84859 -44.17498,-24.57161 -6.10207,-14.72914 33.6887,-25.47577 30.86881,-38.97476 -2.50129,-11.97385 -38.09161,-4.54688 -40.69748,-16.49853 -3.00147,-13.76603 31.98661,-22.23608 30.23717,-36.21656 -1.26441,-10.10434 -29.58032,-17.18304 -29.58032,-17.18304"
       id="use3976" />
    <path
       style="fill:none;fill-rule:evenodd;stroke:#ff640f;stroke-width:1.76176262;stroke-linecap:butt;stroke-linejoin:miter;stroke-opacity:1;stroke-miterlimit:4;stroke-dasharray:none"
       d="m 200.44748,648.71702 c 0,0 38.19476,-8.56226 42.93272,-24.49434 4.1733,-14.03333 -36.09312,-26.71619 -34.20155,-41.09094 2.18983,-16.6413 39.19068,-10.30882 43.7255,-24.10081 4.02244,-12.23375 -32.74763,-28.7002 -28.83222,-40.96876 4.50987,-14.13104 30.55678,-3.74945 36.321,-17.41697 4.16607,-9.87815 -8.64832,-31.43897 -8.64832,-31.43897"
       id="use3978" />
    <path
       style="fill:none;fill-rule:evenodd;stroke:#ff640f;stroke-width:2.82909465;stroke-linecap:butt;stroke-linejoin:miter;stroke-opacity:1;stroke-miterlimit:4;stroke-dasharray:none"
       d="m -58.519716,616.36508 c 0,0 42.950359,11.17395 62.3315192,-7.17849 17.0713598,-16.16522 -11.3471942,-40.02128 2.8251158,-58.49334 16.40695,-21.38467 65.000094,4.5615 82.380434,-10.97783 15.416647,-13.78369 -10.458654,-53.96908 4.837106,-67.88711 17.617871,-16.03088 40.287741,12.54003 59.277871,-1.83909 13.72504,-10.39245 13.452,-22.98474 13.452,-22.98474"
       id="use3980" />
    <path
       style="fill:none;fill-rule:evenodd;stroke:#ff640f;stroke-width:2.82909465;stroke-linecap:butt;stroke-linejoin:miter;stroke-opacity:1;stroke-miterlimit:4;stroke-dasharray:none"
       d="m -173.97066,410.19057 c 0,0 35.17061,32.9789 61.13141,26.7758 22.866842,-5.46381 10.44963,-41.63767 31.959245,-50.54879 24.90117,-10.31619 41.980048,34.26709 64.80152,29.49977 20.2430558,-4.2287 11.5242075,-37.85037 31.729739,-42.25586 23.272947,-5.07429 30.261114,23.47314 53.896609,20.51552 17.082458,-2.1376 26.295008,-24.82695 26.295008,-24.82695"
       id="use3982" />
    <path
       style="fill:none;fill-rule:evenodd;stroke:#ff640f;stroke-width:2.03566456;stroke-linecap:butt;stroke-linejoin:miter;stroke-opacity:1;stroke-miterlimit:4;stroke-dasharray:none"
       d="m -118.22453,216.19407 c 0,0 11.91013,34.18392 30.319189,39.65848 16.215097,4.82213 25.739272,-22.52064 42.348866,-20.33498 19.228536,2.53028 9.82384,30.64366 25.76008,35.8835 14.1357376,4.64781 35.241046,-23.33715 49.417005,-18.81301 16.328003,5.21102 6.668069,32.06709 22.460488,38.72748 11.413907,4.81377 27.669653,-15.1598 27.669653,-15.1598"
       id="use3984" />
    <path
       style="fill:none;fill-rule:evenodd;stroke:#ff640f;stroke-width:2.82909465;stroke-linecap:butt;stroke-linejoin:miter;stroke-opacity:1;stroke-miterlimit:4;stroke-dasharray:none"
       d="m -98.947358,-15.431378 c 0,0 9.350437,54.920923 27.702877,74.302083 16.16522,17.07136 58.521284,-11.847194 76.9933437,2.325116 21.3846703,16.40695 -6.5615037,57.500089 8.9778263,74.880429 13.78369,15.41665 37.469082,-27.45865 51.387112,-12.16289 16.03088,17.61787 -1.540033,41.28774 12.839087,60.27787 10.39245,13.72504 34.484742,10.452 34.484742,10.452"
       id="use3986" />
    <path
       style="fill:none;fill-rule:evenodd;stroke:#ff640f;stroke-width:1.87661254;stroke-linecap:butt;stroke-linejoin:miter;stroke-opacity:1;stroke-miterlimit:4;stroke-dasharray:none"
       d="m 154.94221,-58.794715 c 0,0 -21.15726,20.205756 -17.04259,37.426233 3.62429,15.1681742 33.87458,17.7907671 39.78556,32.058655 6.843,16.517598 -30.41886,23.279864 -27.25659,38.41795 2.805,13.427748 33.64565,15.406007 36.56793,28.808865 3.36586,15.437566 -26.9494,18.011071 -24.98753,33.689112 1.41793,11.33125 26.51156,22.04441 26.51156,22.04441"
       id="use3988" />
    <path
       style="fill:none;fill-rule:evenodd;stroke:#ff640f;stroke-width:2.82909465;stroke-linecap:butt;stroke-linejoin:miter;stroke-opacity:1;stroke-miterlimit:4;stroke-dasharray:none"
       d="m 337.57634,-177.80395 c 0,0 -35.64861,36.89535 -43.25697,62.47961 -6.70162,22.535172 41.595,35.857972 38.55745,58.941399 -3.51651,26.723143 -45.64205,22.06504 -52.9242,44.212664 -6.45936,19.6453515 34.6606,38.408963 28.3731,58.11021 -7.24208,22.692084 -34.21536,10.575534 -43.47173,32.523283 -6.69001,15.862643 7.68363,46.609904 7.68363,46.609904"
       id="use3990" />
    <path
       style="fill:none;fill-rule:evenodd;stroke:#ff640f;stroke-width:2.20137715;stroke-linecap:butt;stroke-linejoin:miter;stroke-opacity:1;stroke-miterlimit:4;stroke-dasharray:none"
       d="m 350.42475,154.86757 c 0,0 7.35613,-28.40309 18.03587,-36.48967 14.77661,-11.18869 35.9604,16.46507 49.66923,3.99112 11.90195,-10.82991 -5.43552,-36.025781 6.5605,-46.751156 13.524,-12.091475 40.68486,-2.117489 50.1381,-18.560595 9.97013,-17.342196 9.58339,-28.774961 15.60895,-42.669716 7.48832,-17.2678508 39.35679,-24.349737 39.35679,-24.349737"
       id="use3992" />
    <path
       style="fill:none;fill-rule:evenodd;stroke:#ff640f;stroke-width:1.90453351;stroke-linecap:butt;stroke-linejoin:miter;stroke-opacity:1;stroke-miterlimit:4;stroke-dasharray:none"
       d="m 622.69522,165.92754 c 0,0 -33.58078,-7.74301 -51.05747,-3.56711 -15.39385,3.67821 -6.26376,24.66441 -20.74393,30.66334 -16.76335,6.94481 -35.59647,-14.03826 -50.95978,-10.82894 -13.62754,2.84674 -13.79889,42.44697 -27.40116,45.41272 -15.66725,3.41594 -30.32368,-31.53205 -46.23499,-29.541 -11.49983,1.43903 -24.50629,9.296 -24.50629,9.296"
       id="use3994" />
    <path
       style="fill:none;fill-rule:evenodd;stroke:#ff640f;stroke-width:2.11660266;stroke-linecap:butt;stroke-linejoin:miter;stroke-opacity:1;stroke-miterlimit:4;stroke-dasharray:none"
       d="m 652.68084,409.39571 c 0,0 -8.04752,-30.24787 -27.53288,-35.83951 -17.16313,-4.92524 -37.5019,20.83514 -55.08259,18.60274 -20.35274,-2.58439 -24.84545,-37.24306 -41.71341,-42.59495 -14.9622,-4.74721 -37.59024,19.55802 -52.59501,14.93713 -17.28264,-5.32246 -6.99587,-33.72468 -23.7116,-40.5275 -12.08123,-4.91671 -28.55135,-2.09971 -28.55135,-2.09971"
       id="use3996" />
  </g>
  <g
     transform="translate(230.87548,221.23529)"
     id="layer3">
    <path
       id="path3359-9"
       d="M 252.16669,121.80798 A 174.49736,174.49736 0 0 0 77.66864,296.30603 174.49736,174.49736 0 0 0 252.16669,470.80212 174.49736,174.49736 0 0 0 426.66278,296.30603 174.49736,174.49736 0 0 0 252.16669,121.80798 Z"
       style="fill:#ff0000;fill-rule:evenodd;stroke:#000000;stroke-width:5.8557148px;stroke-linecap:butt;stroke-linejoin:miter;stroke-opacity:1" />
    <path
       id="use3850-3"
       d="m 647.33056,649.43238 c 0,0 -55.35044,-11.92092 -73.70288,-31.30208 -16.16522,-17.07136 -5.52128,-52.15281 -23.99334,-66.32512 -21.38467,-16.40695 -49.4385,-8.50009 -64.97783,-25.88043 -13.78369,-15.41665 -2.46908,-44.54135 -16.38711,-59.83711 -16.03088,-17.61787 -52.45997,-6.28774 -66.83909,-25.27787 -10.39245,-13.72504 -5.48474,-47.452 -5.48474,-47.452"
       style="fill:none;fill-rule:evenodd;stroke:#000000;stroke-width:2.81500006px;stroke-linecap:butt;stroke-linejoin:miter;stroke-opacity:1" />
    <path
       style="fill:none;fill-rule:evenodd;stroke:#000000;stroke-width:1.66508353px;stroke-linecap:butt;stroke-linejoin:miter;stroke-opacity:1"
       d="m 397.74782,651.57719 c 0,0 -24.82803,-22.47658 -28.49719,-37.83249 -3.23187,-13.52583 12.59598,-28.34859 7.32502,-41.07161 -6.10207,-14.72914 -22.81132,-18.97577 -25.63119,-32.47476 -2.50129,-11.97385 11.90839,-23.54688 9.30252,-35.49853 -3.00141,-13.76604 -25.01339,-18.73608 -26.76283,-32.71656 -1.26441,-10.10434 12.91968,-27.68304 12.91968,-27.68304"
       id="use3976-6" />
    <path
       style="fill:none;fill-rule:evenodd;stroke:#000000;stroke-width:1.75298536px;stroke-linecap:butt;stroke-linejoin:miter;stroke-opacity:1"
       d="m 189.44747,685.21701 c 0,0 -10.80524,-33.56226 -6.06728,-49.49434 4.1733,-14.03333 26.40688,-19.21619 28.29845,-33.59094 2.18983,-16.6413 -10.80932,-29.30882 -6.2745,-43.10081 4.02244,-12.23375 23.25237,-15.2002 27.16778,-27.46876 4.50987,-14.13104 -12.94322,-30.24945 -7.179,-43.91697 4.16607,-9.87815 26.35168,-18.43897 26.35168,-18.43897"
       id="use3978-0" />
    <path
       style="fill:none;fill-rule:evenodd;stroke:#000000;stroke-width:2.81500006px;stroke-linecap:butt;stroke-linejoin:miter;stroke-opacity:1"
       d="m -75.49029,698.38946 c 0,0 11.92092,-55.35044 31.30208,-73.70288 17.07136,-16.16522 52.15281,-5.52128 66.32512,-23.99334 16.40695,-21.38467 8.50009,-49.4385 25.88043,-64.97783 15.41665,-13.78369 44.54135,-2.46908 59.83711,-16.38711 17.61787,-16.03088 6.28774,-52.45997 25.27787,-66.83909 13.72504,-10.39245 28.702,-7.48474 28.702,-7.48474"
       id="use3980-6" />
    <path
       style="fill:none;fill-rule:evenodd;stroke:#000000;stroke-width:2.81500006px;stroke-linecap:butt;stroke-linejoin:miter;stroke-opacity:1"
       d="m -229.83211,473.12307 c 0,0 37.99904,-41.97443 63.95984,-48.17753 22.86684,-5.46381 47.92629,21.29484 69.4359,12.38372 24.90117,-10.31619 32.08055,-38.56495 54.90203,-43.33223 20.24305,-4.2287 39.80848,20.13239 60.01401,15.7269 23.27296,-5.07422 31.67533,-42.2878 55.31082,-45.24542 17.08246,-2.1376 20.05111,5.0921 20.05111,5.0921"
       id="use3982-2" />
    <path
       style="fill:none;fill-rule:evenodd;stroke:#000000;stroke-width:2.02552271px;stroke-linecap:butt;stroke-linejoin:miter;stroke-opacity:1"
       d="m -153.57988,228.92198 c 0,0 38.78019,-12.48513 57.18924,-7.01057 16.2151,4.82213 22.20374,30.51237 38.81334,32.69803 19.22853,2.53028 33.86547,-12.48985 49.80171,-7.25001 14.13574,4.64781 17.56337,26.86743 31.73933,31.39157 16.32801,5.21102 38.70235,-13.95551 54.49476,-7.29512"
       id="use3984-6" />
    <path
       style="fill:none;fill-rule:evenodd;stroke:#000000;stroke-width:2.81500006px;stroke-linecap:butt;stroke-linejoin:miter;stroke-opacity:1"
       d="m -132.94737,-45.43139 c 0,0 55.35044,11.92092 73.70288,31.30208 16.16522,17.07136 5.52128,52.15281 23.99334,66.32512 21.38467,16.40695 49.4385,8.50009 64.97783,25.88043 13.78369,15.41665 2.46908,44.54135 16.38711,59.83711 16.03088,17.61787 52.45997,6.28774 66.83909,25.27787 10.39245,13.72504 5.98474,22.202 5.98474,22.202"
       id="use3986-1" />
    <path
       style="fill:none;fill-rule:evenodd;stroke:#000000;stroke-width:1.8672632px;stroke-linecap:butt;stroke-linejoin:miter;stroke-opacity:1"
       d="m 128.9422,-81.79473 c 0,0 27.84274,25.20576 31.95741,42.42623 3.62429,15.16818 -14.12542,31.79077 -8.21444,46.05866 6.843,16.5176 25.58114,21.27986 28.74341,36.41795 2.805,13.42775 -13.35435,26.40601 -10.43207,39.80886 3.36586,15.43757 29.3006,29.51108 31.26247,45.18912"
       id="use3988-8" />
    <path
       style="fill:none;fill-rule:evenodd;stroke:#000000;stroke-width:2.81500006px;stroke-linecap:butt;stroke-linejoin:miter;stroke-opacity:1"
       d="m 364.57633,-220.80396 c 0,0 17.3514,53.89535 9.74304,79.47961 -6.70162,22.53517 -42.40501,30.85797 -45.44256,53.94139 -3.51651,26.72315 17.35795,47.06505 10.0758,69.21267 -6.45936,19.64535 -37.3394,24.40896 -43.6269,44.11021 -7.24208,22.69208 20.78464,48.57553 11.52827,70.52328 -6.69001,15.86265 -38.31637,27.35991 -38.31637,27.35991"
       id="use3990-7" />
    <path
       style="fill:none;fill-rule:evenodd;stroke:#000000;stroke-width:2.1904099px;stroke-linecap:butt;stroke-linejoin:miter;stroke-opacity:1"
       d="m 352.67474,154.86756 c 0,0 27.10613,4.59691 37.78587,-3.48967 14.77661,-11.18869 5.9604,-39.53493 19.66923,-52.00889 11.90195,-10.82991 34.56448,-2.02577 46.5605,-12.75115 13.524,-12.09147 7.37151,-33.92074 20.1381,-50.5606 11.02776,-14.37349 38.32537,-6.09122 51.60895,-18.66971 15.08088,-14.28041 24.35679,-57.34974 24.35679,-57.34974"
       id="use3992-9" />
    <path
       style="fill:none;fill-rule:evenodd;stroke:#000000;stroke-width:1.89504492px;stroke-linecap:butt;stroke-linejoin:miter;stroke-opacity:1"
       d="m 632.69521,161.92753 c 0,0 -25.58078,28.25699 -43.05747,32.43289 -15.39385,3.67821 -32.26376,-14.33559 -46.74393,-8.33666 -16.76335,6.94481 -21.59647,25.96174 -36.95978,29.17106 -13.62754,2.84674 -26.79889,-13.55303 -40.40116,-10.58728 -15.66725,3.41594 -21.32368,28.46795 -37.23499,30.459 -11.49983,1.43903 -16.00629,-7.204 -16.00629,-7.204"
       id="use3994-2" />
    <path
       style="fill:none;fill-rule:evenodd;stroke:#000000;stroke-width:2.14374685px;stroke-linecap:butt;stroke-linejoin:miter;stroke-opacity:1"
       d="m 682.66848,395.05912 c 0,0 -41.04369,13.21386 -60.52723,7.41976 -17.16153,-5.10358 -23.49971,-32.29329 -41.07876,-34.60652 -20.35085,-2.67797 -35.84211,13.21885 -52.7085,7.67317 -14.9608,-4.91909 -18.5885,-28.4356 -33.59187,-33.22381 -17.28103,-5.51517 -36.99242,15.82842 -53.7066,8.77928 -12.0801,-5.09474 -18.29924,-22.72578 -18.29924,-22.72578"
       id="use3996-0" />
  </g>
</svg>
