<?xml version="1.0" encoding="UTF-8" standalone="no"?>
<!-- Created with Inkscape (http://www.inkscape.org/) -->

<svg
   xmlns:dc="http://purl.org/dc/elements/1.1/"
   xmlns:cc="http://creativecommons.org/ns#"
   xmlns:rdf="http://www.w3.org/1999/02/22-rdf-syntax-ns#"
   xmlns:svg="http://www.w3.org/2000/svg"
   xmlns="http://www.w3.org/2000/svg"
   xmlns:sodipodi="http://sodipodi.sourceforge.net/DTD/sodipodi-0.dtd"
   xmlns:inkscape="http://www.inkscape.org/namespaces/inkscape"
   width="292.93866mm"
   height="298.95508mm"
   viewBox="0 0 1037.9716 1059.2897"
   id="svg2"
   version="1.1"
   inkscape:version="0.91 r13725"
   sodipodi:docname="circle.svg">
  <defs
     id="defs4">
    <inkscape:path-effect
       effect="spiro"
       id="path-effect3381"
       is_visible="true" />
  </defs>
  <sodipodi:namedview
     id="base"
     pagecolor="#ffffff"
     bordercolor="#666666"
     borderopacity="1.0"
     inkscape:pageopacity="0.0"
     inkscape:pageshadow="2"
     inkscape:zoom="1"
     inkscape:cx="588.54154"
     inkscape:cy="423.72192"
     inkscape:document-units="px"
     inkscape:current-layer="layer1"
     showgrid="false"
     fit-margin-top="0"
     fit-margin-left="0"
     fit-margin-right="0"
     fit-margin-bottom="0"
     inkscape:window-width="1233"
     inkscape:window-height="776"
     inkscape:window-x="47"
     inkscape:window-y="24"
     inkscape:window-maximized="1"
     inkscape:snap-grids="true"
     inkscape:snap-to-guides="true"
     inkscape:snap-bbox="true"
     inkscape:snap-global="true"
     inkscape:bbox-paths="true"
     inkscape:bbox-nodes="true"
     inkscape:object-paths="true"
     inkscape:snap-object-midpoints="true"
     inkscape:snap-center="true"
     showguides="true"
     inkscape:guide-bbox="true">
    <sodipodi:guide
       position="1499.0663,520.4306"
       orientation="0,1"
       id="guide3361" />
    <sodipodi:guide
       position="503.45999,-152.73507"
       orientation="1,0"
       id="guide3363" />
  </sodipodi:namedview>
  <metadata
     id="metadata7">
    <rdf:RDF>
      <cc:Work
         rdf:about="">
        <dc:format>image/svg+xml</dc:format>
        <dc:type
           rdf:resource="http://purl.org/dc/dcmitype/StillImage" />
        <dc:title />
      </cc:Work>
    </rdf:RDF>
  </metadata>
  <g
     inkscape:label="Livello 1"
     inkscape:groupmode="layer"
     id="layer1"
     transform="translate(251.29419,242.55335)">
    <path
       style="fill:#ff0000;fill-rule:evenodd;stroke:#000000;stroke-width:5.8557148px;stroke-linecap:butt;stroke-linejoin:miter;stroke-opacity:1"
       d="M 503.46094 364.36133 A 174.49736 174.49736 0 0 0 328.96289 538.85938 A 174.49736 174.49736 0 0 0 503.46094 713.35547 A 174.49736 174.49736 0 0 0 677.95703 538.85938 A 174.49736 174.49736 0 0 0 503.46094 364.36133 z "
       transform="translate(-251.29425,-242.55335)"
       id="path3359" />
    <path
       style="fill:none;fill-rule:evenodd;stroke:#000000;stroke-width:1px;stroke-linecap:butt;stroke-linejoin:miter;stroke-opacity:1"
       d=""
       id="path3379"
       inkscape:path-effect="#path-effect3381"
       inkscape:original-d="M 334.68436,382.3264 Z"
       inkscape:connector-curvature="0" />
    <path
       style="fill:none;fill-rule:evenodd;stroke:#000000;stroke-width:2.81500006px;stroke-linecap:butt;stroke-linejoin:miter;stroke-opacity:1"
       d="m 647.33057,649.43239 c 0,0 -55.35044,-11.92092 -73.70288,-31.30208 -16.16522,-17.07136 -5.52128,-52.15281 -23.99334,-66.32512 -21.38467,-16.40695 -49.4385,-8.50009 -64.97783,-25.88043 -13.78369,-15.41665 -2.46908,-44.54135 -16.38711,-59.83711 -16.03088,-17.61787 -52.45997,-6.28774 -66.83909,-25.27787 -10.39245,-13.72504 -4.48474,-51.452 -4.48474,-51.452"
       id="use3850" />
    <path
       id="use3976"
       d="m 397.74783,651.5772 c 0,0 -24.82803,-22.47658 -28.49719,-37.83249 -3.23187,-13.52583 12.59598,-28.34859 7.32502,-41.07161 -6.10207,-14.72914 -22.81132,-18.97577 -25.63119,-32.47476 -2.50129,-11.97385 11.90839,-23.54688 9.30252,-35.49853 -3.00141,-13.76604 -25.01339,-18.73608 -26.76283,-32.71656 -1.26441,-10.10434 12.91968,-27.68304 12.91968,-27.68304"
       style="fill:none;fill-rule:evenodd;stroke:#000000;stroke-width:1.66508353px;stroke-linecap:butt;stroke-linejoin:miter;stroke-opacity:1"
       inkscape:connector-curvature="0" />
    <path
       id="use3978"
       d="m 189.44748,685.21702 c 0,0 -10.80524,-33.56226 -6.06728,-49.49434 4.1733,-14.03333 26.40688,-19.21619 28.29845,-33.59094 2.18983,-16.6413 -10.80932,-29.30882 -6.2745,-43.10081 4.02244,-12.23375 23.25237,-15.2002 27.16778,-27.46876 4.50987,-14.13104 -12.94322,-30.24945 -7.179,-43.91697 4.16607,-9.87815 26.35168,-18.43897 26.35168,-18.43897"
       style="fill:none;fill-rule:evenodd;stroke:#000000;stroke-width:1.75298536px;stroke-linecap:butt;stroke-linejoin:miter;stroke-opacity:1"
       inkscape:connector-curvature="0" />
    <path
       id="use3980"
       d="m -75.49028,698.38947 c 0,0 11.92092,-55.35044 31.30208,-73.70288 17.07136,-16.16522 52.15281,-5.52128 66.32512,-23.99334 16.40695,-21.38467 8.50009,-49.4385 25.88043,-64.97783 15.41665,-13.78369 44.54135,-2.46908 59.83711,-16.38711 17.61787,-16.03088 6.28774,-52.45997 25.27787,-66.83909 13.72504,-10.39245 51.452,-4.48474 51.452,-4.48474"
       style="fill:none;fill-rule:evenodd;stroke:#000000;stroke-width:2.81500006px;stroke-linecap:butt;stroke-linejoin:miter;stroke-opacity:1"
       inkscape:connector-curvature="0" />
    <path
       id="use3982"
       d="m -229.8321,473.12308 c 0,0 37.99904,-41.97443 63.95984,-48.17753 22.86684,-5.46381 47.92629,21.29484 69.435905,12.38372 24.90117,-10.31619 32.080543,-38.56495 54.902024,-43.33223 20.243056,-4.2287 39.8084808,20.13239 60.014012,15.7269 23.272963,-5.07422 31.675328,-42.2878 55.310823,-45.24542 17.082458,-2.1376 46.801106,21.8421 46.801106,21.8421"
       style="fill:none;fill-rule:evenodd;stroke:#000000;stroke-width:2.81500006px;stroke-linecap:butt;stroke-linejoin:miter;stroke-opacity:1"
       inkscape:connector-curvature="0" />
    <path
       id="use3984"
       d="m -153.57987,228.92199 c 0,0 38.78019,-12.48513 57.189247,-7.01057 16.215097,4.82213 22.203738,30.51237 38.813332,32.69803 19.228536,2.53028 33.865472,-12.48985 49.8017119,-7.25001 14.1357378,4.64781 17.5633756,26.86743 31.7393341,31.39157 16.328003,5.21102 34.952343,-14.95551 50.744762,-8.29512 11.413907,4.81377 21.305691,30.44859 21.305691,30.44859"
       style="fill:none;fill-rule:evenodd;stroke:#000000;stroke-width:2.02552271px;stroke-linecap:butt;stroke-linejoin:miter;stroke-opacity:1"
       inkscape:connector-curvature="0" />
    <path
       id="use3986"
       d="m -132.94736,-45.43138 c 0,0 55.35044,11.92092 73.70288,31.30208 16.16522,17.07136 5.52128,52.15281 23.99334,66.32512 21.38467,16.40695 49.4385,8.50009 64.97783,25.88043 13.78369,15.41665 2.46908,44.54135 16.38711,59.83711 16.03088,17.61787 52.45997,6.28774 66.83909,25.27787 10.39245,13.72504 4.48474,51.452 4.48474,51.452"
       style="fill:none;fill-rule:evenodd;stroke:#000000;stroke-width:2.81500006px;stroke-linecap:butt;stroke-linejoin:miter;stroke-opacity:1"
       inkscape:connector-curvature="0" />
    <path
       id="use3988"
       d="m 128.94221,-81.794717 c 0,0 27.84274,25.205757 31.95741,42.426234 3.62429,15.168174 -14.12542,31.7907678 -8.21444,46.0586555 6.843,16.5175985 25.58114,21.2798645 28.74341,36.4179505 2.805,13.427748 -13.35435,26.406007 -10.43207,39.808865 3.36586,15.437566 28.0506,21.011072 30.01247,36.689112 1.41793,11.33125 -14.48844,31.04441 -14.48844,31.04441"
       style="fill:none;fill-rule:evenodd;stroke:#000000;stroke-width:1.8672632px;stroke-linecap:butt;stroke-linejoin:miter;stroke-opacity:1"
       inkscape:connector-curvature="0" />
    <path
       id="use3990"
       d="m 364.57634,-220.80395 c 0,0 17.3514,53.89535 9.74304,79.47961 -6.70162,22.53517 -42.40501,30.85797 -45.44256,53.941397 -3.51651,26.723143 17.35795,47.065042 10.0758,69.212666 -6.45936,19.6453511 -37.3394,24.4089614 -43.6269,44.110209 -7.24208,22.692084 20.78464,48.575536 11.52827,70.523285 -6.69001,15.862643 -42.31637,29.609903 -42.31637,29.609903"
       style="fill:none;fill-rule:evenodd;stroke:#000000;stroke-width:2.81500006px;stroke-linecap:butt;stroke-linejoin:miter;stroke-opacity:1"
       inkscape:connector-curvature="0" />
    <path
       id="use3992"
       d="m 552.79419,-39.962186 c 0,0 -9.27591,43.0693251 -24.35679,57.349739 -13.28358,12.578493 -40.58119,4.296223 -51.60895,18.669715 -12.76659,16.639855 -6.6141,38.469122 -20.1381,50.560597 -11.99602,10.725375 -34.65855,1.921242 -46.5605,12.75115 -13.70883,12.473955 -4.89262,40.820195 -19.66923,52.008885 -10.67974,8.08658 -40.03587,3.48967 -40.03587,3.48967"
       style="fill:none;fill-rule:evenodd;stroke:#000000;stroke-width:2.1904099px;stroke-linecap:butt;stroke-linejoin:miter;stroke-opacity:1"
       inkscape:connector-curvature="0" />
    <path
       id="use3994"
       d="m 632.69522,161.92754 c 0,0 -25.58078,28.25699 -43.05747,32.43289 -15.39385,3.67821 -32.26376,-14.33559 -46.74393,-8.33666 -16.76335,6.94481 -21.59647,25.96174 -36.95978,29.17106 -13.62754,2.84674 -26.79889,-13.55303 -40.40116,-10.58728 -15.66725,3.41594 -21.32368,28.46795 -37.23499,30.459 -11.49983,1.43903 -31.50629,-14.704 -31.50629,-14.704"
       style="fill:none;fill-rule:evenodd;stroke:#000000;stroke-width:1.89504492px;stroke-linecap:butt;stroke-linejoin:miter;stroke-opacity:1"
       inkscape:connector-curvature="0" />
    <path
       id="use3996"
       d="m 647.29843,379.15963 c 0,0 -41.04369,13.21386 -60.52723,7.41976 -17.16153,-5.10358 -23.49971,-32.29329 -41.07876,-34.60652 -20.35085,-2.67797 -35.84211,13.21885 -52.7085,7.67317 -14.9608,-4.91909 -18.5885,-28.4356 -33.59187,-33.22381 -17.28103,-5.51517 -36.99242,15.82842 -53.7066,8.77928 -12.0801,-5.09474 -22.54924,-32.22578 -22.54924,-32.22578"
       style="fill:none;fill-rule:evenodd;stroke:#000000;stroke-width:2.14374685px;stroke-linecap:butt;stroke-linejoin:miter;stroke-opacity:1"
       inkscape:connector-curvature="0" />
  </g>
</svg>
