<?xml version="1.0" encoding="UTF-8" standalone="no"?>
<svg
   xmlns:dc="http://purl.org/dc/elements/1.1/"
   xmlns:cc="http://creativecommons.org/ns#"
   xmlns:rdf="http://www.w3.org/1999/02/22-rdf-syntax-ns#"
   xmlns:svg="http://www.w3.org/2000/svg"
   xmlns="http://www.w3.org/2000/svg"
   version="1.1"
   id="svg2"
   viewBox="0 0 179.75594 178.38777">
  <defs
     id="defs4" />
  <metadata
     id="metadata7">
    <rdf:RDF>
      <cc:Work
         rdf:about="">
        <dc:format>image/svg+xml</dc:format>
        <dc:type
           rdf:resource="http://purl.org/dc/dcmitype/StillImage" />
        <dc:title></dc:title>
      </cc:Work>
    </rdf:RDF>
  </metadata>
  <g
     id="layer1"
     transform="translate(-50.353211,-731.46737)">
    <g
       id="linee">
      <path
         style="opacity:0.856;fill:#d89101;fill-opacity:1;stroke:none;stroke-width:1;stroke-miterlimit:4;stroke-dasharray:none;stroke-dashoffset:0;stroke-opacity:1"
         d="m 171.22458,731.47746 c -2.06987,0.089 -6.93,2.01887 -9.00898,4.49512 -2.16492,3.05288 -3.85066,4.31897 -4.69019,10.45525 -0.30212,21.29715 -0.55661,52.63459 -0.90174,71.73464 0.0309,11.43248 0.44712,68.00957 0.98534,77.13595 1.34907,7.04645 3.82439,8.93385 7.46277,12.13576 5.15595,3.64576 13.05111,3.48306 18.15565,-0.26184 3.01298,-2.4074 5.95044,-4.4664 5.93404,-12.64144 0.16725,-19.90879 -0.26748,-20.0728 -0.17592,-75.57526 -0.46973,-55.71096 -0.41576,-56.17561 -0.32179,-71.73547 -0.31342,-6.25514 -1.83307,-7.29904 -4.30206,-10.87801 -3.62512,-3.74573 -7.72951,-4.97429 -13.1371,-4.8647 z"
         id="linea-gialla" />
      <path
         id="linea-verde"
         d="m 109.31822,909.88246 c 2.06987,-0.089 6.93,-2.01887 9.00898,-4.49512 2.16492,-3.05288 3.85066,-4.31897 4.69019,-10.45525 0.30212,-21.29715 0.55661,-52.63459 0.90174,-71.73464 -0.0309,-11.43248 -0.44712,-68.00957 -0.98534,-77.13595 -1.34907,-7.04645 -3.82439,-8.93385 -7.46277,-12.13576 -5.15595,-3.64576 -13.05111,-3.48306 -18.155648,0.26184 -3.012976,2.4074 -5.950436,4.4664 -5.934036,12.64144 -0.16725,19.90879 0.26748,20.0728 0.17592,75.57526 0.46973,55.71096 0.41576,56.17561 0.32179,71.73547 0.31342,6.25514 1.83307,7.29904 4.30206,10.87801 3.625116,3.74573 7.729504,4.97429 13.137094,4.8647 z"
         style="opacity:0.856;fill:#06ae77;fill-opacity:0.84705882;stroke:none;stroke-width:1;stroke-miterlimit:4;stroke-dasharray:none;stroke-dashoffset:0;stroke-opacity:1" />
      <path
         style="opacity:0.856;fill:#0db3d1;fill-opacity:0.84705882;stroke:none;stroke-width:1;stroke-miterlimit:4;stroke-dasharray:none;stroke-dashoffset:0;stroke-opacity:1"
         d="m 50.73314,790.34951 c 0.089,2.06987 2.01887,6.93 4.49512,9.00898 3.05288,2.16492 4.31897,3.85066 10.45525,4.69019 21.29715,0.30212 52.63459,0.55661 71.73464,0.90174 11.43248,-0.0309 68.00957,-0.44712 77.13595,-0.98534 7.04645,-1.34907 8.93385,-3.82439 12.13576,-7.46277 3.64576,-5.15595 3.48306,-13.05111 -0.26184,-18.15565 -2.4074,-3.01298 -4.4664,-5.95044 -12.64144,-5.93404 -19.90879,-0.16725 -20.0728,0.26748 -75.57526,0.17592 -55.71096,0.46973 -56.17561,0.41576 -71.73547,0.32179 -6.25514,0.31342 -7.29904,1.83307 -10.87801,4.30206 -3.74573,3.62512 -4.97429,7.72951 -4.8647,13.1371 z"
         id="linea-celeste" />
      <path
         id="linea-fucsia"
         d="m 227.97428,851.46386 c -0.089,-2.06987 -2.01887,-6.93 -4.49512,-9.00898 -3.05288,-2.16492 -4.31897,-3.85066 -10.45525,-4.69019 -21.29715,-0.30212 -52.63459,-0.55661 -71.73464,-0.90174 -11.43248,0.0309 -68.009572,0.44712 -77.135952,0.98534 -7.046449,1.34907 -8.933849,3.82439 -12.135759,7.46277 -3.64576,5.15595 -3.48306,13.05111 0.26184,18.15565 2.4074,3.01298 4.4664,5.95044 12.641439,5.93404 19.90879,0.16725 20.0728,-0.26748 75.575262,-0.17592 55.71096,-0.46973 56.17561,-0.41576 71.73547,-0.32179 6.25514,-0.31342 7.29904,-1.83307 10.87801,-4.30206 3.74573,-3.62512 4.97429,-7.72951 4.8647,-13.1371 z"
         style="opacity:0.856;fill:#d03334;fill-opacity:0.82352941;stroke:none;stroke-width:1;stroke-miterlimit:4;stroke-dasharray:none;stroke-dashoffset:0;stroke-opacity:1" />
    </g>
    <g
       id="punti"
       transform="translate(0.19531261,0.39062499)">
      <path
         id="giallo"
         d="m 172.29947,730.99102 c -2.06987,0.089 -4.10084,0.59245 -5.97266,1.48047 -5.88387,2.80047 -9.38536,8.98447 -8.75977,15.4707 l -0.0163,-0.52714 0.0339,-1.22091 c -0.005,2.2943 0.49886,4.56116 1.47657,6.63672 3.66563,7.72737 12.90121,11.02042 20.6289,7.35547 5.95355,-2.83272 8.90855,-6.43106 8.74024,-13.39897 l 0,-0.0581 c 0.0463,-2.38361 -2.3228,-8.1984 -4.16769,-10.49312 -4.31565,-3.88383 -6.34844,-4.87138 -11.96319,-5.24516 z"
         style="opacity:0.856;fill:#d89101;fill-opacity:1;stroke:none;stroke-width:1;stroke-miterlimit:4;stroke-dasharray:none;stroke-dashoffset:0;stroke-opacity:1" />
      <path
         style="opacity:0.856;fill:#06ae77;fill-opacity:0.84705882;stroke:none;stroke-width:1;stroke-miterlimit:4;stroke-dasharray:none;stroke-dashoffset:0;stroke-opacity:1"
         d="m 107.8527,909.58765 c 2.06987,-0.089 4.10084,-0.59245 5.97266,-1.48047 5.88387,-2.80047 9.38536,-8.98447 8.75977,-15.4707 l 0.0163,0.52714 -0.0339,1.22091 c 0.005,-2.2943 -0.49886,-4.56116 -1.47657,-6.63672 -3.66563,-7.72737 -12.90121,-11.02042 -20.6289,-7.35547 -5.953544,2.83272 -8.908544,6.43106 -8.740234,13.39897 l 0,0.0581 c -0.0463,2.38361 2.3228,8.1984 4.16769,10.49312 4.315644,3.88383 6.348434,4.87138 11.963184,5.24516 z"
         id="verde" />
      <path
         id="celeste"
         d="m 50.442012,788.68868 c 0.089,2.06987 0.59245,4.10084 1.48047,5.97266 2.80047,5.88387 8.98447,9.38536 15.4707,8.75977 l -0.52714,0.0163 -1.22091,-0.0339 c 2.2943,0.005 4.56116,-0.49886 6.63672,-1.47657 7.72737,-3.66563 11.02042,-12.90121 7.35547,-20.6289 -2.83272,-5.95355 -6.43106,-8.90855 -13.39897,-8.74024 l -0.0581,0 c -2.38361,-0.0463 -8.1984,2.3228 -10.49312,4.16769 -3.88383,4.31565 -4.87138,6.34844 -5.24516,11.96319 z"
         style="opacity:0.856;fill:#0cb4d0;fill-opacity:0.72941176;stroke:none;stroke-width:1;stroke-miterlimit:4;stroke-dasharray:none;stroke-dashoffset:0;stroke-opacity:1" />
      <path
         style="opacity:0.856;fill:#d03334;fill-opacity:0.82352941;stroke:none;stroke-width:1;stroke-miterlimit:4;stroke-dasharray:none;stroke-dashoffset:0;stroke-opacity:1"
         d="m 227.87478,852.34344 c -0.089,-2.06987 -0.59245,-4.10084 -1.48047,-5.97266 -2.80047,-5.88387 -8.98447,-9.38536 -15.4707,-8.75977 l 0.52714,-0.0163 1.22091,0.0339 c -2.2943,-0.005 -4.56116,0.49886 -6.63672,1.47657 -7.72737,3.66563 -11.02042,12.90121 -7.35547,20.6289 2.83272,5.95355 6.43106,8.90855 13.39897,8.74024 l 0.0581,0 c 2.38361,0.0463 8.1984,-2.3228 10.49312,-4.16769 3.88383,-4.31565 4.87138,-6.34844 5.24516,-11.96319 z"
         id="fucsia" />
      <path
         id="giallo-1"
         d="m 155.87824,821.35924 c -2.06987,0.089 -4.10084,0.59245 -5.97266,1.48047 -5.88387,2.80047 -9.38536,8.98447 -8.75977,15.4707 l -0.0163,-0.52714 0.0339,-1.22091 c -0.005,2.2943 0.49886,4.56116 1.47657,6.63672 3.66563,7.72737 12.90121,11.02042 20.6289,7.35547 5.95355,-2.83272 8.90855,-6.43106 8.74024,-13.39897 l 0,-0.0581 c 0.0463,-2.38361 -2.3228,-8.1984 -4.16769,-10.49312 -4.31565,-3.88383 -6.34844,-4.87138 -11.96319,-5.24516 z"
         style="opacity:0.856;fill:#d89101;fill-opacity:1;stroke:none;stroke-width:1;stroke-miterlimit:4;stroke-dasharray:none;stroke-dashoffset:0;stroke-opacity:1" />
      <path
         style="opacity:0.856;fill:#d03334;fill-opacity:0.82352941;stroke:none;stroke-width:1;stroke-miterlimit:4;stroke-dasharray:none;stroke-dashoffset:0;stroke-opacity:1"
         d="m 138.85914,835.91181 c -0.089,-2.06987 -0.59245,-4.10084 -1.48047,-5.97266 -2.80047,-5.88387 -8.98447,-9.38536 -15.4707,-8.75977 l 0.52714,-0.0163 1.22091,0.0339 c -2.2943,-0.005 -4.56116,0.49886 -6.63672,1.47657 -7.72737,3.66563 -11.02042,12.90121 -7.35547,20.6289 2.83272,5.95355 6.43106,8.90855 13.39897,8.74024 l 0.0581,0 c 2.38361,0.0463 8.1984,-2.3228 10.49312,-4.16769 3.88383,-4.31565 4.87138,-6.34844 5.24516,-11.96319 z"
         id="fucsia-1" />
      <path
         id="celeste-1"
         d="m 141.28713,805.1062 c 0.089,2.06987 0.59245,4.10084 1.48047,5.97266 2.80047,5.88387 8.98447,9.38536 15.4707,8.75977 l -0.52714,0.0163 -1.22091,-0.0339 c 2.2943,0.005 4.56116,-0.49886 6.63672,-1.47657 7.72737,-3.66563 11.02042,-12.90121 7.35547,-20.6289 -2.83272,-5.95355 -6.43106,-8.90855 -13.39897,-8.74024 l -0.0581,0 c -2.38361,-0.0463 -8.1984,2.3228 -10.49312,4.16769 -3.88383,4.31565 -4.87138,6.34844 -5.24516,11.96319 z"
         style="opacity:0.856;fill:#0cb4d0;fill-opacity:0.72941176;stroke:none;stroke-width:1;stroke-miterlimit:4;stroke-dasharray:none;stroke-dashoffset:0;stroke-opacity:1" />
      <path
         style="opacity:0.856;fill:#06ae77;fill-opacity:0.84705882;stroke:none;stroke-width:1;stroke-miterlimit:4;stroke-dasharray:none;stroke-dashoffset:0;stroke-opacity:1"
         d="m 124.27763,819.69726 c 2.06987,-0.089 4.10084,-0.59245 5.97266,-1.48047 5.88387,-2.80047 9.38536,-8.98447 8.75977,-15.4707 l 0.0163,0.52714 -0.0339,1.22091 c 0.005,-2.2943 -0.49886,-4.56116 -1.47657,-6.63672 -3.66563,-7.72737 -12.90121,-11.02042 -20.6289,-7.35547 -5.95354,2.83272 -8.90854,6.43106 -8.74023,13.39897 l 0,0.0581 c -0.0463,2.38361 2.3228,8.1984 4.16769,10.49312 4.31564,3.88383 6.34843,4.87138 11.96318,5.24516 z"
         id="verde-1" />
    </g>
  </g>
  <path
     id="centro"
     d="m 79.68985,79.517685 21.18187,0 0,21.181865 -21.18187,0 z"
     style="opacity:0;fill:#000000;fill-opacity:1;stroke:none;stroke-width:1;stroke-miterlimit:4;stroke-dasharray:none;stroke-dashoffset:0;stroke-opacity:1" />
</svg>
